PathFileType	4	(X/Y/Z)	Walk3.trc
DataRate	CameraRate	NumFrames	NumMarkers	Units	OrigDataRate	OrigDataStartFrame	OrigNumFrames
200.000000	200.000000	4	58	mm	200.000000	296	499
Frame#	Times		LFHD		RFHD		RASI		RACR1		RUA1		RElbow		RFA1		RCAR		LACR1		LUA1		RTH3		RTH2		LLFC		LTB3		LTB2		LMT1		LMT5		LCAR		LTH3		RBHD		RWRU		RLFC		RTB2		LWRR		LASI		LTH2		C7		LElbow		RTH1		RTB4		RMT1		RBack		CLAV		LFA1		RTB3		RTB1		STRN		RToe		LTB1		RWRR		LTB4		LPSI		LTH4		LTH1		LElbowM		LWRU		RPSI		RMMAL		RLMAL		LToe		RTH4		LBHD		LCAL		RMT5		RCAL		T10		LLMAL		LMMAL
			X1	Y1	Z1	X2	Y2	Z2	X3	Y3	Z3	X4	Y4	Z4	X5	Y5	Z5	X6	Y6	Z6	X7	Y7	Z7	X8	Y8	Z8	X9	Y9	Z9	X10	Y10	Z10	X11	Y11	Z11	X12	Y12	Z12	X13	Y13	Z13	X14	Y14	Z14	X15	Y15	Z15	X16	Y16	Z16	X17	Y17	Z17	X18	Y18	Z18	X19	Y19	Z19	X20	Y20	Z20	X21	Y21	Z21	X22	Y22	Z22	X23	Y23	Z23	X24	Y24	Z24	X25	Y25	Z25	X26	Y26	Z26	X27	Y27	Z27	X28	Y28	Z28	X29	Y29	Z29	X30	Y30	Z30	X31	Y31	Z31	X32	Y32	Z32	X33	Y33	Z33	X34	Y34	Z34	X35	Y35	Z35	X36	Y36	Z36	X37	Y37	Z37	X38	Y38	Z38	X39	Y39	Z39	X40	Y40	Z40	X41	Y41	Z41	X42	Y42	Z42	X43	Y43	Z43	X44	Y44	Z44	X45	Y45	Z45	X46	Y46	Z46	X47	Y47	Z47	X48	Y48	Z48	X49	Y49	Z49	X50	Y50	Z50	X51	Y51	Z51	X52	Y52	Z52	X53	Y53	Z53	X54	Y54	Z54	X55	Y55	Z55	X56	Y56	Z56	X57	Y57	Z57	X58	Y58	Z58

296	1.48	101.93	1565.8	-39.222	94.214	1565.2	55.095	94.792	955.18	151.23	-29.025	1350	152.71	-66.265	1167.6	244.42	-127.05	1050.1	260.09	-136.25	905.5	281.69	-67.3	748.97	318.59	-13.26	1357.1	-157.85	18.571	1181.1	-251.88	113.42	567.61	173.14	136.76	670.07	176.9	-132.3	470.04	-128.33	-272.46	184.48	-61.727	-234.48	264.74	-114.23	-283.89	35.339	-17.24	-309.47	35.08	-95.87	208.45	821.74	-269.1	-89.87	586.14	-158.61	-64.309	1532	59.453	-124.49	796.22	296.07	141.14	490.79	145.23	207.81	264.55	129.52	172.44	857.52	-231.21	98.986	933.12	-140.9	-5.0275	649.48	-166.72	-97.171	1392.4	-0.31627	12.149	1055.2	-287.73	58.53	725.68	219.52	229.98	265.48	70.697	339.77	42.654	43.299	-152.34	1292.8	100.03	43.619	1317.5	-2.3149	69.916	927.07	-294.18	240.77	181.01	75.489	218.22	352.34	72.756	105.87	1213.6	4.0739	402.21	49.454	70.606	-165.44	319.27	-53.974	-59.828	799.52	266.21	-220.57	252.1	-56.547	-148.68	941.88	-38.515	-59.579	661.25	-184.33	-29.163	733.14	-221.48	-27.089	1017.9	-222.81	137.07	829.71	-289.47	-148.76	944.58	51.362	236.71	71.692	19.996	222.62	61.678	102.2	-217.47	20.47	-42.96	85.392	645.41	196.8	-49.142	1524.9	-80.9	-436.27	122.01	-60.812	311.35	27.53	114.9	162.93	23.887	65.023	-160.38	1124.2	-10.009	-366.01	115.6	-91.093	-356.75	113.09	-6.2423
297	1.485	107.65	1566.4	-38.506	99.986	1565.8	55.818	101.46	955.66	151.81	-22.796	1350.1	153.53	-59.587	1167.6	245.06	-120.31	1050	260.68	-129.89	905.51	282.24	-61.463	748.76	319.21	-7.1654	1357.3	-157.1	23.993	1181.2	-251.08	120.22	568.51	173.3	143.64	670.92	177.33	-124.16	469.4	-128.16	-268.24	185.8	-62.065	-228.94	265.46	-114.48	-283.31	35.788	-17.321	-308.71	36.065	-95.756	212.77	821.3	-268.62	-82.224	585.59	-158.2	-58.456	1532.2	60.257	-118.48	796.25	296.71	147.82	491.44	145.43	212.18	264.36	129.31	177.08	857.21	-230.64	105.68	933.08	-139.73	2.3564	649.29	-166.09	-91.044	1392.7	0.56267	17.094	1055.2	-286.78	65.478	726.56	219.91	233.66	264.94	70.192	340.41	40.551	42.715	-146.09	1292.9	100.87	49.802	1317.8	-1.5621	74.391	926.88	-293.26	243.45	180.33	74.969	223	351.93	72.291	112.15	1214	4.9084	403.42	46.153	69.864	-159.19	318.86	-54.093	-53.889	799.26	266.82	-215.31	252.6	-56.775	-142.11	941.97	-38.364	-52.235	660.89	-183.76	-22.106	732.89	-220.86	-22.058	1018.1	-221.7	141.29	829.3	-288.6	-142.38	944.94	51.571	237.49	70.976	19.664	223.59	61.383	101.98	-217.78	20.413	-42.875	92.243	646.31	196.99	-43.349	1525.1	-80.085	-432.82	126.57	-61.112	311.68	26.702	115.02	163.15	24.352	65.089	-154.16	1124.4	-9.5016	-362.92	118.43	-91.54	-353.66	115.81	-6.7783
298	1.49	113.37	1567	-37.782	105.77	1566.4	56.549	108.12	956.26	152.36	-16.55	1350.3	154.33	-52.873	1167.6	245.68	-113.53	1050	261.26	-123.47	905.61	282.78	-55.554	748.67	319.82	-1.0673	1357.7	-156.35	29.378	1181.4	-250.29	126.85	569.45	173.52	150.4	671.79	177.85	-115.71	468.74	-128.02	-263.72	187.17	-62.441	-223.11	266.22	-114.78	-282.65	36.296	-17.397	-307.88	37.13	-95.608	216.92	820.85	-268.17	-74.372	585.01	-157.8	-52.592	1532.5	61.069	-112.41	796.37	297.33	154.36	492.14	145.69	216.31	264.2	129.2	181.58	856.94	-230.09	112.37	933.14	-138.53	9.881	649.16	-165.46	-84.908	1393.1	1.4394	21.969	1055.4	-285.83	72.328	727.5	220.34	237.18	264.44	69.824	340.92	38.774	42.212	-139.82	1293.2	101.7	55.994	1318.3	-0.81441	78.731	926.76	-292.34	245.96	179.73	74.562	227.64	351.56	71.987	118.41	1214.4	5.7486	404.49	43.233	69.245	-152.63	318.45	-54.281	-47.876	799.09	267.43	-209.74	253.13	-57.056	-135.56	942.13	-38.251	-44.76	660.55	-183.19	-14.984	732.68	-220.23	-17.1	1018.5	-220.58	145.33	828.92	-287.72	-136	945.37	51.747	238.15	70.377	19.399	224.42	61.149	101.8	-218.12	20.349	-42.791	98.965	647.25	197.23	-37.547	1525.4	-79.265	-428.99	131.3	-61.355	311.93	26.078	115.19	163.33	24.759	65.171	-147.95	1124.8	-9.0103	-359.54	121.38	-91.989	-350.25	118.64	-7.3326
299	1.495	119.11	1567.7	-37.05	111.56	1567.1	57.288	114.77	956.97	152.87	-10.289	1350.6	155.12	-46.128	1167.8	246.29	-106.74	1050.1	261.84	-117.01	905.8	283.31	-49.57	748.67	320.42	5.0291	1358.1	-155.6	34.727	1181.6	-249.5	133.32	570.42	173.82	157.03	672.66	178.47	-106.96	468.04	-127.93	-258.9	188.62	-62.862	-216.99	267.03	-115.12	-281.88	36.875	-17.47	-306.96	38.281	-95.428	220.89	820.41	-267.76	-66.314	584.41	-157.43	-46.716	1532.9	61.887	-106.26	796.6	297.95	160.71	492.85	145.99	220.18	264.05	129.19	185.94	856.68	-229.57	119.03	933.32	-137.31	17.544	649.09	-164.83	-78.766	1393.6	2.3122	26.774	1055.6	-284.88	79.067	728.5	220.81	240.54	264	69.598	341.32	37.304	41.785	-133.56	1293.5	102.52	62.19	1318.8	-0.074857	82.941	926.7	-291.42	248.3	179.18	74.269	232.12	351.22	71.852	124.67	1215	6.5906	405.42	40.683	68.739	-145.74	318.04	-54.548	-41.782	799.03	268.03	-203.86	253.69	-57.398	-129.05	942.35	-38.17	-37.156	660.22	-182.62	-7.8051	732.5	-219.59	-12.213	1019	-219.45	149.18	828.56	-286.83	-129.64	945.87	51.896	238.69	69.893	19.194	225.13	60.97	101.67	-218.51	20.277	-42.708	105.55	648.24	197.54	-31.735	1525.8	-78.442	-424.77	136.21	-61.545	312.12	25.629	115.4	163.47	25.108	65.265	-141.76	1125.2	-8.5317	-355.88	124.43	-92.444	-346.51	121.56	-7.9087
